<?xml version="1.0" encoding="UTF-8"?>
<svg width="200" height="200" viewBox="0 0 200 200" xmlns="http://www.w3.org/2000/svg">
    <!-- Background Circle -->
    <circle cx="100" cy="100" r="90" fill="#3E4F57" opacity="0.1"/>
    
    <!-- Storage Stack -->
    <g transform="translate(50, 50)">
        <!-- Bottom Drive -->
        <rect x="0" y="60" width="100" height="20" rx="5" fill="#3E5FA3"/>
        <!-- Middle Drive -->
        <rect x="10" y="40" width="100" height="20" rx="5" fill="#3E5FA3"/>
        <!-- Top Drive -->
        <rect x="20" y="20" width="100" height="20" rx="5" fill="#3E5FA3"/>
        <!-- Data Lines -->
        <line x1="30" y1="35" x2="90" y2="35" stroke="#FFFFFF" stroke-width="2"/>
        <line x1="30" y1="55" x2="90" y2="55" stroke="#FFFFFF" stroke-width="2"/>
        <line x1="30" y1="75" x2="90" y2="75" stroke="#FFFFFF" stroke-width="2"/>
    </g>
    
    <!-- Cloud Icon -->
    <g transform="translate(100, 100)">
        <path d="M-30,-10 Q-30,-30 -10,-30 Q10,-30 10,-10 Q30,-10 30,10 Q10,10 10,30 Q-10,30 -10,10 Q-30,10 -30,-10" 
              fill="#363636" opacity="0.8"/>
    </g>
</svg> 