<?xml version="1.0" encoding="UTF-8"?>
<svg width="200" height="200" viewBox="0 0 200 200" xmlns="http://www.w3.org/2000/svg">
    <!-- Background Circle -->
    <circle cx="100" cy="100" r="90" fill="#1a1a1a" opacity="0.1"/>
    
    <!-- Server Rack -->
    <g transform="translate(50, 30)">
        <!-- Rack Frame -->
        <rect x="0" y="0" width="100" height="140" rx="5" fill="#f5f5f5"/>
        
        <!-- Server Units -->
        <rect x="10" y="10" width="80" height="25" rx="3" fill="#FFFFFF"/>
        <rect x="10" y="45" width="80" height="25" rx="3" fill="#FFFFFF"/>
        <rect x="10" y="80" width="80" height="25" rx="3" fill="#FFFFFF"/>
        <rect x="10" y="115" width="80" height="15" rx="3" fill="#FFFFFF"/>
        
        <!-- Status Lights -->
        <circle cx="20" cy="22" r="3" fill="#10b981"/>
        <circle cx="20" cy="57" r="3" fill="#10b981"/>
        <circle cx="20" cy="92" r="3" fill="#10b981"/>
        <circle cx="20" cy="122" r="3" fill="#10b981"/>
    </g>
    
    <!-- Network Lines -->
    <g transform="translate(100, 100)">
        <line x1="-80" y1="-60" x2="80" y2="-60" stroke="#000000" stroke-width="2" stroke-dasharray="5,5"/>
        <line x1="-80" y1="-30" x2="80" y2="-30" stroke="#000000" stroke-width="2" stroke-dasharray="5,5"/>
        <line x1="-80" y1="0" x2="80" y2="0" stroke="#000000" stroke-width="2" stroke-dasharray="5,5"/>
        <line x1="-80" y1="30" x2="80" y2="30" stroke="#000000" stroke-width="2" stroke-dasharray="5,5"/>
        <line x1="-80" y1="60" x2="80" y2="60" stroke="#000000" stroke-width="2" stroke-dasharray="5,5"/>
    </g>
</svg> 