<?xml version="1.0" encoding="UTF-8"?>
<svg width="200" height="200" viewBox="0 0 200 200" xmlns="http://www.w3.org/2000/svg">
    <!-- Background Circle -->
    <circle cx="100" cy="100" r="90" fill="#1a1a1a" opacity="0.1"/>
    
    <!-- Server Tower -->
    <g transform="translate(50, 30)">
        <!-- Tower Case -->
        <rect x="0" y="0" width="100" height="140" rx="5" fill="#f5f5f5"/>
        
        <!-- Server Units -->
        <rect x="10" y="10" width="80" height="25" rx="3" fill="#FFFFFF"/>
        <rect x="10" y="45" width="80" height="25" rx="3" fill="#FFFFFF"/>
        <rect x="10" y="80" width="80" height="25" rx="3" fill="#FFFFFF"/>
        <rect x="10" y="115" width="80" height="15" rx="3" fill="#FFFFFF"/>
        
        <!-- Status Lights -->
        <circle cx="20" cy="22" r="3" fill="#10b981"/>
        <circle cx="20" cy="57" r="3" fill="#10b981"/>
        <circle cx="20" cy="92" r="3" fill="#10b981"/>
        <circle cx="20" cy="122" r="3" fill="#10b981"/>
        
        <!-- Data Lines -->
        <line x1="30" y1="22" x2="80" y2="22" stroke="#f5f5f5" stroke-width="2"/>
        <line x1="30" y1="57" x2="80" y2="57" stroke="#f5f5f5" stroke-width="2"/>
        <line x1="30" y1="92" x2="80" y2="92" stroke="#f5f5f5" stroke-width="2"/>
        <line x1="30" y1="122" x2="80" y2="122" stroke="#f5f5f5" stroke-width="2"/>
    </g>
    
    <!-- Cloud Connection -->
    <g transform="translate(100, 100)">
        <path d="M-30,-10 Q-30,-30 -10,-30 Q10,-30 10,-10 Q30,-10 30,10 Q10,10 10,30 Q-10,30 -10,10 Q-30,10 -30,-10" 
              fill="#000000" opacity="0.8"/>
        <line x1="0" y1="-40" x2="0" y2="-20" stroke="#000000" stroke-width="2" stroke-dasharray="5,5"/>
    </g>
</svg> 