<svg width="1200" height="600" viewBox="0 0 1200 600" xmlns="http://www.w3.org/2000/svg">
  <!-- Background gradient -->
  <defs>
    <linearGradient id="bgGradient" x1="0%" y1="0%" x2="100%" y2="100%">
      <stop offset="0%" style="stop-color:#1e3a8a;stop-opacity:1" />
      <stop offset="50%" style="stop-color:#3b82f6;stop-opacity:1" />
      <stop offset="100%" style="stop-color:#60a5fa;stop-opacity:1" />
    </linearGradient>
    
    <linearGradient id="circleGradient" x1="0%" y1="0%" x2="100%" y2="100%">
      <stop offset="0%" style="stop-color:#ffffff;stop-opacity:0.1" />
      <stop offset="100%" style="stop-color:#ffffff;stop-opacity:0.05" />
    </linearGradient>
    
    <filter id="glow">
      <feGaussianBlur stdDeviation="3" result="coloredBlur"/>
      <feMerge> 
        <feMergeNode in="coloredBlur"/>
        <feMergeNode in="SourceGraphic"/>
      </feMerge>
    </filter>
  </defs>
  
  <!-- Background -->
  <rect width="1200" height="600" fill="url(#bgGradient)"/>
  
  <!-- Abstract geometric shapes -->
  <circle cx="100" cy="100" r="80" fill="url(#circleGradient)" opacity="0.3"/>
  <circle cx="1100" cy="500" r="120" fill="url(#circleGradient)" opacity="0.2"/>
  <circle cx="900" cy="150" r="60" fill="url(#circleGradient)" opacity="0.25"/>
  
  <!-- Network connection lines -->
  <g stroke="#ffffff" stroke-width="2" opacity="0.3">
    <line x1="200" y1="150" x2="400" y2="200"/>
    <line x1="400" y1="200" x2="600" y2="150"/>
    <line x1="600" y1="150" x2="800" y2="250"/>
    <line x1="800" y1="250" x2="1000" y2="200"/>
    
    <line x1="250" y1="300" x2="450" y2="350"/>
    <line x1="450" y1="350" x2="650" y2="300"/>
    <line x1="650" y1="300" x2="850" y2="400"/>
    
    <line x1="300" y1="450" x2="500" y2="500"/>
    <line x1="500" y1="500" x2="700" y2="450"/>
    <line x1="700" y1="450" x2="900" y2="550"/>
  </g>
  
  <!-- Connection nodes -->
  <g fill="#ffffff" opacity="0.8">
    <circle cx="200" cy="150" r="6"/>
    <circle cx="400" cy="200" r="6"/>
    <circle cx="600" cy="150" r="6"/>
    <circle cx="800" cy="250" r="6"/>
    <circle cx="1000" cy="200" r="6"/>
    
    <circle cx="250" cy="300" r="6"/>
    <circle cx="450" cy="350" r="6"/>
    <circle cx="650" cy="300" r="6"/>
    <circle cx="850" cy="400" r="6"/>
    
    <circle cx="300" cy="450" r="6"/>
    <circle cx="500" cy="500" r="6"/>
    <circle cx="700" cy="450" r="6"/>
    <circle cx="900" cy="550" r="6"/>
  </g>
  
  <!-- Floating icons representing IT services -->
  <g fill="#ffffff" opacity="0.9">
    <!-- Server icon -->
    <rect x="150" y="250" width="40" height="30" rx="3"/>
    <rect x="155" y="255" width="30" height="5" rx="1"/>
    <rect x="155" y="265" width="30" height="5" rx="1"/>
    <rect x="155" y="275" width="20" height="5" rx="1"/>
    
    <!-- Shield icon -->
    <path d="M 950 180 L 970 160 L 990 180 L 990 200 L 970 220 L 950 200 Z"/>
    <path d="M 970 160 L 970 200" stroke="#1e3a8a" stroke-width="3" fill="none"/>
    
    <!-- Network icon -->
    <circle cx="180" cy="400" r="15"/>
    <circle cx="220" cy="400" r="15"/>
    <circle cx="180" cy="440" r="15"/>
    <circle cx="220" cy="440" r="15"/>
    <line x1="195" y1="400" x2="205" y2="400" stroke="#1e3a8a" stroke-width="2"/>
    <line x1="180" y1="415" x2="180" y2="425" stroke="#1e3a8a" stroke-width="2"/>
    <line x1="220" y1="415" x2="220" y2="425" stroke="#1e3a8a" stroke-width="2"/>
    
    <!-- Data icon -->
    <rect x="850" y="350" width="35" height="25" rx="2"/>
    <rect x="855" y="355" width="25" height="3" rx="1"/>
    <rect x="855" y="362" width="25" height="3" rx="1"/>
    <rect x="855" y="369" width="25" height="3" rx="1"/>
    
    <!-- Tools icon -->
    <rect x="1000" y="400" width="8" height="25" rx="1"/>
    <rect x="1015" y="400" width="8" height="25" rx="1"/>
    <rect x="1007" y="395" width="2" height="35" rx="1"/>
  </g>
  
  <!-- Floating particles -->
  <g fill="#ffffff" opacity="0.6">
    <circle cx="120" cy="320" r="2"/>
    <circle cx="280" cy="180" r="2"/>
    <circle cx="480" cy="280" r="2"/>
    <circle cx="720" cy="180" r="2"/>
    <circle cx="920" cy="320" r="2"/>
    <circle cx="180" cy="480" r="2"/>
    <circle cx="380" cy="520" r="2"/>
    <circle cx="580" cy="480" r="2"/>
    <circle cx="780" cy="520" r="2"/>
    <circle cx="980" cy="480" r="2"/>
  </g>
  
  <!-- Central focus area -->
  <circle cx="600" cy="300" r="80" fill="none" stroke="#ffffff" stroke-width="3" opacity="0.4"/>
  <circle cx="600" cy="300" r="60" fill="none" stroke="#ffffff" stroke-width="2" opacity="0.6"/>
  <circle cx="600" cy="300" r="40" fill="none" stroke="#ffffff" stroke-width="1" opacity="0.8"/>
  
  <!-- Central icon -->
  <g fill="#ffffff" opacity="0.9">
    <!-- Central computer/server icon -->
    <rect x="580" y="280" width="40" height="30" rx="3"/>
    <rect x="585" y="285" width="30" height="5" rx="1"/>
    <rect x="585" y="295" width="30" height="5" rx="1"/>
    <rect x="585" y="305" width="20" height="5" rx="1"/>
    
    <!-- Connection lines from center -->
    <line x1="600" y1="280" x2="600" y2="260" stroke="#ffffff" stroke-width="2" opacity="0.6"/>
    <line x1="600" y1="310" x2="600" y2="330" stroke="#ffffff" stroke-width="2" opacity="0.6"/>
    <line x1="580" y1="295" x2="560" y2="295" stroke="#ffffff" stroke-width="2" opacity="0.6"/>
    <line x1="620" y1="295" x2="640" y2="295" stroke="#ffffff" stroke-width="2" opacity="0.6"/>
  </g>
  
  <!-- Subtle grid pattern -->
  <g stroke="#ffffff" stroke-width="0.5" opacity="0.1">
    <line x1="0" y1="100" x2="1200" y2="100"/>
    <line x1="0" y1="200" x2="1200" y2="200"/>
    <line x1="0" y1="300" x2="1200" y2="300"/>
    <line x1="0" y1="400" x2="1200" y2="400"/>
    <line x1="0" y1="500" x2="1200" y2="500"/>
    
    <line x1="100" y1="0" x2="100" y2="600"/>
    <line x1="200" y1="0" x2="200" y2="600"/>
    <line x1="300" y1="0" x2="300" y2="600"/>
    <line x1="400" y1="0" x2="400" y2="600"/>
    <line x1="500" y1="0" x2="500" y2="600"/>
    <line x1="600" y1="0" x2="600" y2="600"/>
    <line x1="700" y1="0" x2="700" y2="600"/>
    <line x1="800" y1="0" x2="800" y2="600"/>
    <line x1="900" y1="0" x2="900" y2="600"/>
    <line x1="1000" y1="0" x2="1000" y2="600"/>
    <line x1="1100" y1="0" x2="1100" y2="600"/>
  </g>
</svg>
