<?xml version="1.0" encoding="UTF-8"?>
<svg width="200" height="200" viewBox="0 0 200 200" xmlns="http://www.w3.org/2000/svg">
    <!-- Background Circle -->
    <circle cx="100" cy="100" r="90" fill="#1a1a1a" opacity="0.1"/>
    
    <!-- Firewall Shield -->
    <g transform="translate(100, 100)">
        <!-- Shield Body -->
        <path d="M-40,-60 L40,-60 L60,-40 L60,40 L40,60 L-40,60 L-60,40 L-60,-40 Z" 
              fill="#000000"/>
        
        <!-- Shield Inner -->
        <path d="M-30,-50 L30,-50 L45,-35 L45,35 L30,50 L-30,50 L-45,35 L-45,-35 Z" 
              fill="#ffffff"/>
        
        <!-- Fire Icon -->
        <path d="M-20,-20 Q-10,-40 0,-20 Q10,-40 20,-20 Q10,0 0,20 Q-10,0 -20,-20" 
              fill="#000000"/>
    </g>
    
    <!-- Security Lines -->
    <g transform="translate(100, 100)">
        <line x1="-80" y1="-80" x2="80" y2="-80" stroke="#000000" stroke-width="2" stroke-dasharray="5,5"/>
        <line x1="-80" y1="-40" x2="80" y2="-40" stroke="#000000" stroke-width="2" stroke-dasharray="5,5"/>
        <line x1="-80" y1="0" x2="80" y2="0" stroke="#000000" stroke-width="2" stroke-dasharray="5,5"/>
        <line x1="-80" y1="40" x2="80" y2="40" stroke="#000000" stroke-width="2" stroke-dasharray="5,5"/>
        <line x1="-80" y1="80" x2="80" y2="80" stroke="#000000" stroke-width="2" stroke-dasharray="5,5"/>
    </g>
</svg> 