<svg width="400" height="300" viewBox="0 0 400 300" xmlns="http://www.w3.org/2000/svg">
  <!-- Definitions -->
  <defs>
    <!-- Main gradient matching our theme -->
    <linearGradient id="mainGradient" x1="0%" y1="0%" x2="100%" y2="100%">
      <stop offset="0%" style="stop-color:#1e3a8a;stop-opacity:0.9" />
      <stop offset="50%" style="stop-color:#3b82f6;stop-opacity:0.8" />
      <stop offset="100%" style="stop-color:#60a5fa;stop-opacity:0.7" />
    </linearGradient>
    
    <!-- Black blend overlay -->
    <linearGradient id="blackBlend" x1="0%" y1="0%" x2="100%" y2="100%">
      <stop offset="0%" style="stop-color:#000000;stop-opacity:0.8" />
      <stop offset="50%" style="stop-color:#000000;stop-opacity:0.6" />
      <stop offset="100%" style="stop-color:#000000;stop-opacity:0.7" />
    </linearGradient>
    
    <!-- Glow effect -->
    <filter id="glow">
      <feGaussianBlur stdDeviation="3" result="coloredBlur"/>
      <feMerge> 
        <feMergeNode in="coloredBlur"/>
        <feMergeNode in="SourceGraphic"/>
      </feMerge>
    </filter>
  </defs>
  
  <!-- Background with our theme colors -->
  <rect width="400" height="300" fill="url(#mainGradient)" rx="20"/>
  
  <!-- Black blend overlay -->
  <rect width="400" height="300" fill="url(#blackBlend)" rx="20"/>
  
  <!-- Central support hub -->
  <circle cx="200" cy="150" r="80" fill="none" stroke="#ffffff" stroke-width="3" opacity="0.9"/>
  <circle cx="200" cy="150" r="60" fill="none" stroke="#fbbf24" stroke-width="2" opacity="0.8"/>
  
  <!-- Support icons around the hub -->
  <!-- Laptop icon -->
  <g transform="translate(120, 80)">
    <rect x="0" y="0" width="40" height="30" rx="3" fill="#ffffff" opacity="0.9"/>
    <rect x="5" y="5" width="30" height="20" fill="#1e3a8a" opacity="0.8"/>
    <rect x="15" y="25" width="10" height="3" fill="#ffffff" opacity="0.9"/>
  </g>
  
  <!-- Server icon -->
  <g transform="translate(240, 80)">
    <rect x="0" y="0" width="40" height="50" rx="3" fill="#ffffff" opacity="0.9"/>
    <rect x="5" y="5" width="30" height="3" fill="#3b82f6" opacity="0.8"/>
    <rect x="5" y="15" width="30" height="3" fill="#3b82f6" opacity="0.8"/>
    <rect x="5" y="25" width="30" height="3" fill="#3b82f6" opacity="0.8"/>
    <rect x="5" y="35" width="30" height="3" fill="#3b82f6" opacity="0.8"/>
  </g>
  
  <!-- Network icon -->
  <g transform="translate(120, 220)">
    <circle cx="20" cy="20" r="15" fill="none" stroke="#ffffff" stroke-width="2" opacity="0.9"/>
    <circle cx="20" cy="20" r="8" fill="#60a5fa" opacity="0.8"/>
    <line x1="35" y1="20" x2="45" y2="20" stroke="#ffffff" stroke-width="2" opacity="0.9"/>
  </g>
  
  <!-- Security icon -->
  <g transform="translate(240, 220)">
    <rect x="10" y="10" width="20" height="20" rx="2" fill="none" stroke="#ffffff" stroke-width="2" opacity="0.9"/>
    <circle cx="20" cy="20" r="8" fill="#fbbf24" opacity="0.8"/>
    <path d="M16 20 L20 24 L24 16" stroke="#ffffff" stroke-width="2" fill="none" opacity="0.9"/>
  </g>
  
  <!-- Connection lines -->
  <line x1="160" y1="95" x2="180" y2="130" stroke="#ffffff" stroke-width="2" opacity="0.7" stroke-dasharray="5,5"/>
  <line x1="280" y1="105" x2="220" y2="130" stroke="#ffffff" stroke-width="2" opacity="0.7" stroke-dasharray="5,5"/>
  <line x1="160" y1="235" x2="180" y2="200" stroke="#ffffff" stroke-width="2" opacity="0.7" stroke-dasharray="5,5"/>
  <line x1="280" y1="235" x2="220" y2="200" stroke="#ffffff" stroke-width="2" opacity="0.7" stroke-dasharray="5,5"/>
  
  <!-- Central support icon -->
  <g transform="translate(180, 130)">
    <circle cx="20" cy="20" r="15" fill="#fbbf24" opacity="0.9"/>
    <path d="M20 10 L20 30 M10 20 L30 20" stroke="#ffffff" stroke-width="3" opacity="0.9"/>
  </g>
  
  <!-- Floating tech elements -->
  <circle cx="80" cy="60" r="3" fill="#60a5fa" opacity="0.6"/>
  <circle cx="320" cy="60" r="3" fill="#3b82f6" opacity="0.6"/>
  <circle cx="80" cy="240" r="3" fill="#1e3a8a" opacity="0.6"/>
  <circle cx="320" cy="240" r="3" fill="#fbbf24" opacity="0.6"/>
  
  <!-- Data flow lines -->
  <path d="M50 150 Q100 100 150 150 Q200 200 250 150 Q300 100 350 150" 
        stroke="#ffffff" stroke-width="1" fill="none" opacity="0.4" stroke-dasharray="3,3"/>
</svg>
