<?xml version="1.0" encoding="UTF-8"?>
<svg width="200" height="200" viewBox="0 0 200 200" xmlns="http://www.w3.org/2000/svg">
    <!-- Background Circle -->
    <circle cx="100" cy="100" r="90" fill="#1a1a1a" opacity="0.1"/>
    
    <!-- POS Terminal -->
    <g transform="translate(100, 100)">
        <!-- Main Terminal -->
        <rect x="-60" y="-40" width="120" height="80" rx="8" fill="#2d3748" stroke="#1a1a1a" stroke-width="2"/>
        
        <!-- Screen -->
        <rect x="-50" y="-30" width="100" height="40" rx="4" fill="#1e3a8a"/>
        <rect x="-45" y="-25" width="90" height="30" rx="2" fill="#ffffff"/>
        
        <!-- Screen Content -->
        <rect x="-40" y="-20" width="20" height="4" rx="1" fill="#1e3a8a"/>
        <rect x="-40" y="-15" width="30" height="4" rx="1" fill="#1e3a8a"/>
        <rect x="-40" y="-10" width="25" height="4" rx="1" fill="#1e3a8a"/>
        <rect x="-40" y="-5" width="35" height="4" rx="1" fill="#1e3a8a"/>
        <rect x="-40" y="0" width="15" height="4" rx="1" fill="#1e3a8a"/>
        <rect x="-40" y="5" width="40" height="4" rx="1" fill="#1e3a8a"/>
        <rect x="-40" y="10" width="20" height="4" rx="1" fill="#1e3a8a"/>
        
        <!-- Keypad -->
        <g fill="#4a5568">
            <!-- Row 1 -->
            <rect x="-40" y="20" width="12" height="12" rx="2"/>
            <rect x="-25" y="20" width="12" height="12" rx="2"/>
            <rect x="-10" y="20" width="12" height="12" rx="2"/>
            <rect x="5" y="20" width="12" height="12" rx="2"/>
            
            <!-- Row 2 -->
            <rect x="-40" y="35" width="12" height="12" rx="2"/>
            <rect x="-25" y="35" width="12" height="12" rx="2"/>
            <rect x="-10" y="35" width="12" height="12" rx="2"/>
            <rect x="5" y="35" width="12" height="12" rx="2"/>
            
            <!-- Row 3 -->
            <rect x="-40" y="50" width="12" height="12" rx="2"/>
            <rect x="-25" y="50" width="12" height="12" rx="2"/>
            <rect x="-10" y="50" width="12" height="12" rx="2"/>
            <rect x="5" y="50" width="12" height="12" rx="2"/>
        </g>
        
        <!-- Card Reader -->
        <rect x="25" y="20" width="25" height="40" rx="4" fill="#1a1a1a"/>
        <rect x="27" y="22" width="21" height="36" rx="2" fill="#4a5568"/>
        <rect x="30" y="25" width="15" height="30" rx="1" fill="#1e3a8a"/>
        
        <!-- Receipt Printer -->
        <rect x="55" y="25" width="8" height="30" rx="2" fill="#1a1a1a"/>
        <rect x="57" y="27" width="4" height="26" rx="1" fill="#4a5568"/>
        
        <!-- Receipt Paper -->
        <rect x="65" y="30" width="15" height="20" rx="1" fill="#ffffff" stroke="#1a1a1a" stroke-width="0.5"/>
        <rect x="67" y="32" width="11" height="2" rx="0.5" fill="#1a1a1a"/>
        <rect x="67" y="35" width="8" height="2" rx="0.5" fill="#1a1a1a"/>
        <rect x="67" y="38" width="10" height="2" rx="0.5" fill="#1a1a1a"/>
        <rect x="67" y="41" width="6" height="2" rx="0.5" fill="#1a1a1a"/>
        <rect x="67" y="44" width="9" height="2" rx="0.5" fill="#1a1a1a"/>
    </g>
    
    <!-- Credit Card -->
    <g transform="translate(100, 100)">
        <rect x="-70" y="30" width="40" height="25" rx="3" fill="#1e3a8a"/>
        <rect x="-65" y="35" width="30" height="15" rx="2" fill="#ffffff"/>
        <rect x="-60" y="40" width="20" height="2" rx="1" fill="#1e3a8a"/>
        <rect x="-60" y="43" width="15" height="2" rx="1" fill="#1e3a8a"/>
        <rect x="-60" y="46" width="18" height="2" rx="1" fill="#1e3a8a"/>
    </g>
    
    <!-- Status Lights -->
    <g transform="translate(100, 100)">
        <!-- Green Light -->
        <circle cx="-50" cy="-60" r="3" fill="#10b981"/>
        <!-- Blue Light -->
        <circle cx="-40" cy="-60" r="3" fill="#3b82f6"/>
        <!-- Red Light -->
        <circle cx="-30" cy="-60" r="3" fill="#ef4444"/>
    </g>
</svg> 