<?xml version="1.0" encoding="UTF-8"?>
<svg width="200" height="200" viewBox="0 0 200 200" xmlns="http://www.w3.org/2000/svg">
    <!-- Background Circle -->
    <circle cx="100" cy="100" r="90" fill="#1a1a1a" opacity="0.1"/>
    
    <!-- Server Rack -->
    <g transform="translate(100, 100)">
        <!-- Main Rack -->
        <rect x="-50" y="-60" width="100" height="120" rx="5" fill="#2d3748" stroke="#1a1a1a" stroke-width="2"/>
        
        <!-- Server Units -->
        <!-- Unit 1 -->
        <rect x="-45" y="-55" width="90" height="25" rx="3" fill="#4a5568"/>
        <rect x="-40" y="-50" width="15" height="15" rx="2" fill="#1e3a8a"/>
        <rect x="-20" y="-50" width="15" height="15" rx="2" fill="#3b82f6"/>
        <rect x="0" y="-50" width="15" height="15" rx="2" fill="#60a5fa"/>
        <rect x="20" y="-50" width="15" height="15" rx="2" fill="#93c5fd"/>
        <rect x="40" y="-50" width="15" height="15" rx="2" fill="#dbeafe"/>
        
        <!-- Unit 2 -->
        <rect x="-45" y="-25" width="90" height="25" rx="3" fill="#4a5568"/>
        <rect x="-40" y="-20" width="15" height="15" rx="2" fill="#1e3a8a"/>
        <rect x="-20" y="-20" width="15" height="15" rx="2" fill="#3b82f6"/>
        <rect x="0" y="-20" width="15" height="15" rx="2" fill="#60a5fa"/>
        <rect x="20" y="-20" width="15" height="15" rx="2" fill="#93c5fd"/>
        <rect x="40" y="-20" width="15" height="15" rx="2" fill="#dbeafe"/>
        
        <!-- Unit 3 -->
        <rect x="-45" y="5" width="90" height="25" rx="3" fill="#4a5568"/>
        <rect x="-40" y="10" width="15" height="15" rx="2" fill="#1e3a8a"/>
        <rect x="-20" y="10" width="15" height="15" rx="2" fill="#3b82f6"/>
        <rect x="0" y="10" width="15" height="15" rx="2" fill="#60a5fa"/>
        <rect x="20" y="10" width="15" height="15" rx="2" fill="#93c5fd"/>
        <rect x="40" y="10" width="15" height="15" rx="2" fill="#dbeafe"/>
        
        <!-- Unit 4 -->
        <rect x="-45" y="35" width="90" height="25" rx="3" fill="#4a5568"/>
        <rect x="-40" y="40" width="15" height="15" rx="2" fill="#1e3a8a"/>
        <rect x="-20" y="40" width="15" height="15" rx="2" fill="#3b82f6"/>
        <rect x="0" y="40" width="15" height="15" rx="2" fill="#60a5fa"/>
        <rect x="20" y="40" width="15" height="15" rx="2" fill="#93c5fd"/>
        <rect x="40" y="40" width="15" height="15" rx="2" fill="#dbeafe"/>
        
        <!-- Power Button -->
        <circle cx="-35" cy="55" r="8" fill="#10b981"/>
        <circle cx="-35" cy="55" r="4" fill="#ffffff"/>
        
        <!-- Network Ports -->
        <rect x="25" y="50" width="8" height="4" rx="1" fill="#1e3a8a"/>
        <rect x="35" y="50" width="8" height="4" rx="1" fill="#1e3a8a"/>
        <rect x="45" y="50" width="8" height="4" rx="1" fill="#1e3a8a"/>
    </g>
    
    <!-- Status Indicators -->
    <g transform="translate(100, 100)">
        <!-- Green Status Light -->
        <circle cx="-30" cy="-70" r="3" fill="#10b981"/>
        <!-- Blue Status Light -->
        <circle cx="-20" cy="-70" r="3" fill="#3b82f6"/>
        <!-- Yellow Status Light -->
        <circle cx="-10" cy="-70" r="3" fill="#f59e0b"/>
    </g>
</svg> 