<?xml version="1.0" encoding="UTF-8"?>
<svg width="200" height="200" viewBox="0 0 200 200" xmlns="http://www.w3.org/2000/svg">
    <!-- Background Circle -->
    <circle cx="100" cy="100" r="90" fill="#1a1a1a" opacity="0.1"/>
    
    <!-- Wireless Router -->
    <g transform="translate(100, 100)">
        <!-- Router Body -->
        <rect x="-30" y="-20" width="60" height="40" rx="5" fill="#000000"/>
        <rect x="-25" y="-15" width="50" height="30" rx="3" fill="#ffffff"/>
        
        <!-- Antennas -->
        <line x1="-20" y1="-20" x2="-20" y2="-40" stroke="#000000" stroke-width="2"/>
        <line x1="0" y1="-20" x2="0" y2="-40" stroke="#000000" stroke-width="2"/>
        <line x1="20" y1="-20" x2="20" y2="-40" stroke="#000000" stroke-width="2"/>
        
        <!-- Status Lights -->
        <circle cx="-15" cy="0" r="2" fill="#ffffff"/>
        <circle cx="0" cy="0" r="2" fill="#ffffff"/>
        <circle cx="15" cy="0" r="2" fill="#ffffff"/>
    </g>
    
    <!-- Signal Waves -->
    <g transform="translate(100, 100)">
        <!-- Connected Devices -->
        <rect x="-70" y="20" width="40" height="30" rx="3" fill="#000000"/>
        <rect x="-65" y="25" width="30" height="20" rx="2" fill="#ffffff"/>
        <line x1="-60" y1="35" x2="-30" y2="35" stroke="#000000" stroke-width="2"/>
        
        <rect x="30" y="20" width="40" height="30" rx="3" fill="#000000"/>
        <rect x="35" y="25" width="30" height="20" rx="2" fill="#ffffff"/>
        <line x1="40" y1="35" x2="70" y2="35" stroke="#000000" stroke-width="2"/>
    </g>
</svg> 